<?xml version="1.0" encoding="UTF-8"?>
<svg id="Laag_1" data-name="Laag 1" xmlns="http://www.w3.org/2000/svg" viewBox="0 0 554.14 171.39">
  <defs>
    <style>
      .cls-1 {
        fill: #a0c63d;
      }

      .cls-2 {
        fill: #e72a79;
      }
    </style>
  </defs>
  <g>
    <path d="M478.7,59.77h-31.26c5.1-1.67,10.57-2.55,16.34-2.55,5.18,0,10.28.92,14.92,2.55Z"/>
    <path d="M70.05,56.64c-6.65,0-12.97,1.11-18.82,3.13h38.73c-5.8-2.04-12.45-3.13-19.91-3.13Z"/>
    <path d="M188.41,56.24c-6.26,0-11.48,1.09-16.24,3.54h31.9c-4.62-2.26-9.9-3.54-15.65-3.54Z"/>
    <polygon points="156.34 115.58 149.34 160.04 119.56 160.04 126.58 115.58 156.34 115.58"/>
    <g>
      <polygon points="544.36 8.93 514.38 8.93 506.71 59.77 536.34 59.77 544.36 8.93"/>
      <polygon points="177.86 8.36 147.68 8.36 139.57 59.77 169.68 59.77 177.86 8.36"/>
    </g>
    <path d="M272.3,56.44c-7.96,0-15.05,1.16-21.24,3.33h41.26c-5.69-2.18-12.4-3.33-20.02-3.33Z"/>
    <path d="M215.17,134.7c0,1.96.19,3.83.52,5.63l3.57-22.46c-2.69,4.78-4.09,10.4-4.09,16.82Z"/>
    <g>
      <path d="M523.79,59.77l-8.8,55.81h-30.34c.96-3.15,1.5-6.54,1.5-10.09,0-12.29-7.12-20.87-18.72-21.83h-.04c-.71-.06-1.42-.08-2.17-.08-15.48,0-28.16,13.69-28.16,31.17,0,.29.04.56.04.84h-29.98c.15-9.9,2.05-18.87,5.39-26.66v-.02c6.08-14.31,17.01-24.61,30.76-29.13h31.26c7.77,2.74,14.27,7.46,17.68,13.14l.67-4.47,1.3-8.67h29.63Z"/>
      <path d="M111.75,98.88h-30.17c-.56-9.3-5.95-14.81-15.19-15.59t-.04,0c-.73-.08-1.5-.1-2.28-.1-14.29,0-24.95,13.69-24.95,31.99v.4H8.58c.69-26.7,16.15-48.08,38.49-55.81h38.74c16.55,5.83,25.95,19.6,25.95,39.11Z"/>
      <path d="M218.22,98.09l-2.78,17.49h-30.02l1.63-10.26c2.09-12.7-3.34-21.12-13.75-22.02-.63-.08-1.27-.1-1.94-.1-11.66,0-19.51,7.65-21.73,21.94l-1.65,10.45h-29.75l8.8-55.81h30.13l-1.69,10.55c1.67-1.98,3.32-3.72,5.01-5.24,2.42-2.21,4.91-3.97,7.52-5.31h31.88c13.31,6.5,21.04,21.29,18.34,38.32Z"/>
      <path d="M309.17,101.1l-2.34,14.48h-90.28c1.11-1.57,2.34-3.03,3.76-4.39,6.98-6.79,17.8-10.91,32.11-12.1l28.16-2.42.21-1.82c1.13-9.44-3.95-14.81-13.92-15.42-.65-.04-1.3-.06-1.98-.06-11.47,0-17.91,4.83-19.31,14.48h-26.16c.56-3.72,1.46-7.17,2.72-10.36,4.32-11.47,12.81-19.54,24.74-23.71h41.26c16.38,6.27,24.3,21.02,21.02,41.33Z"/>
      <path d="M412.93,59.77l-8.82,55.81h-29.98c.06-.4.15-.79.21-1.19l8.61-54.62h29.98Z"/>
    </g>
    <g>
      <path d="M525.44,115.58l-7.1,45.05h-28.16l.19-12.68c-7.23,9.46-17.7,15.09-31.57,15.09-23.76,0-41.24-18.91-41.24-46.26,0-.4.02-.79.02-1.19h29.98c.31,11.51,6.96,19.58,17.7,20.91,1.02.13,2.09.19,3.2.19,12.35,0,22.88-8.71,26.66-21.1h30.34Z"/>
      <path d="M118.77,120.01c-6.04,25.55-26.95,42.46-52.71,42.46-29.77,0-47.07-16.51-47.07-45.07,0-.61.04-1.21.04-1.82h30.55c.15,13.02,6.56,20.33,18.09,20.33,9.26,0,16.9-5.83,20.54-15.9h30.57Z"/>
      <path d="M225.53,117.87l.36-2.29h-30.02l-7.03,44.46h29.97l3.14-19.72c-.33-1.8-.52-3.67-.52-5.63,0-6.43,1.4-12.04,4.09-16.82Z"/>
      <path d="M227,115.58c-.52.75-1.02,1.5-1.46,2.3l-3.57,22.46c2.49,13.54,14.1,22.31,30.25,22.31,14.29,0,27.16-6.44,31.78-16.09l-.19,13.48h26.35l7.12-44.46h-90.28ZM287.42,122.01c-1.61,11.28-10.66,18.32-23.13,18.32-1.07,0-2.07-.06-3.01-.19h-.02c-6.12-.77-9.44-4.01-9.44-9.07,0-7.65,5.43-11.87,20.31-13.08l9.76-.86,6.35-.56-.81,5.43Z"/>
      <path d="M414.56,115.58l-7.04,44.46h-28.16l-.4-10.86c-8.44,9.46-16.49,13.48-28.56,13.48-22.34,0-36.61-18.91-32.99-41.83l.84-5.24h30.09c-1.17,11.12,3.7,18.55,12.08,19.89.92.15,1.86.23,2.86.23,11.32,0,18.85-6.83,21.31-20.12h29.98Z"/>
    </g>
    <polygon points="350.97 59.46 320.99 59.46 320.94 59.77 350.92 59.77 350.97 59.46"/>
    <path d="M350.92,59.77l-8.61,53.8c-.1.69-.19,1.34-.25,2.01h-30.09l8.96-55.81h29.98Z"/>
    <polygon points="417.15 59.46 387.18 59.46 387.13 59.77 417.1 59.77 417.15 59.46"/>
  </g>
  <g>
    <path class="cls-2" d="M89.98,59.77c16.55,5.83,25.95,19.6,25.95,39.11h-30.17c-.61-10.05-6.85-15.69-17.51-15.69-.63,0-1.25.02-1.86.1t-.04,0"/>
    <polyline class="cls-2" points="118.23 115.58 122.4 115.58 131.2 59.77 127.02 59.77"/>
    <path class="cls-2" d="M387.13,59.77l-8.61,54.62c-.06.4-.15.79-.21,1.19h-4.18c.06-.4.15-.79.21-1.19l8.61-54.62h4.18Z"/>
    <path class="cls-2" d="M219.26,117.87c.45-.79.95-1.55,1.47-2.29h-1.1l-.36,2.29Z"/>
    <path class="cls-2" d="M360.4,135.47c-1.09.15-2.24.23-3.41.23-10.11,0-16.23-7.79-14.94-20.12h6.27c-1.17,11.12,3.7,18.55,12.08,19.89Z"/>
    <path class="cls-2" d="M281.97,116.58l-.08.56-9.76.86c-14.88,1.21-20.31,5.43-20.31,13.08,0,5.06,3.32,8.29,9.44,9.07-1.04.13-2.13.19-3.24.19-8.04,0-12.47-3.43-12.47-9.26,0-7.65,5.43-11.87,20.31-13.08l16.11-1.42Z"/>
    <path class="cls-2" d="M172.17,59.77h-10.85l-1.68,10.55c4.07-4.85,8.1-8.28,12.52-10.55Z"/>
    <path class="cls-2" d="M222.15,83.49c4.32-11.47,12.81-19.54,24.74-23.71h4.18c-15.25,5.35-24.86,17.05-27.45,34.08h-.75c.21-3.59-.04-7.08-.71-10.36Z"/>
    <path class="cls-2" d="M284.98,94.85l-.21,1.82-28.16,2.42c-17.17,1.42-29.33,7.08-35.87,16.49h-1.11l.69-4.39c6.98-6.79,17.8-10.91,32.11-12.1l28.16-2.42.21-1.82c1.13-9.44-3.95-14.81-13.92-15.42.71-.04,1.44-.06,2.19-.06,11.28,0,17.11,5.43,15.9,15.48Z"/>
    <path class="cls-2" d="M490.34,105.49c0,3.55-.54,6.94-1.5,10.09h-4.18c.96-3.15,1.5-6.54,1.5-10.09,0-12.29-7.12-20.87-18.72-21.83.65-.06,1.3-.08,1.96-.08,12.89,0,20.94,8.86,20.94,21.92Z"/>
    <path class="cls-2" d="M447.45,59.77h-30.34l-8.82,55.81h3.01c.4-28.04,14.89-48.82,36.15-55.81Z"/>
    <path class="cls-2" d="M465.25,136.49c-1.02.13-2.03.19-3.07.19-12.6,0-20.56-8.48-20.89-21.1h6.27c.31,11.51,6.96,19.58,17.7,20.91Z"/>
    <path class="cls-2" d="M498.34,59.77l-1.96,13.14c-.94-1.57-2.13-3.07-3.51-4.47l1.3-8.67h4.18Z"/>
    <path class="cls-2" d="M191.23,105.32l-1.63,10.26h-4.18l1.63-10.26c2.09-12.7-3.34-21.12-13.75-22.02.73-.06,1.46-.1,2.24-.1,11.66,0,17.91,8.65,15.69,22.13Z"/>
    <path class="cls-2" d="M478.7,59.77h-31.26c5.1-1.67,10.57-2.55,16.34-2.55,5.18,0,10.28.92,14.92,2.55Z"/>
    <path class="cls-2" d="M70.05,56.64c-6.65,0-12.97,1.11-18.82,3.13h38.73c-5.8-2.04-12.45-3.13-19.91-3.13Z"/>
    <path class="cls-2" d="M188.41,56.24c-6.26,0-11.48,1.09-16.24,3.54h31.9c-4.62-2.26-9.9-3.54-15.65-3.54Z"/>
    <polygon class="cls-2" points="156.34 115.58 149.34 160.04 119.56 160.04 126.58 115.58 156.34 115.58"/>
    <g>
      <polygon class="cls-2" points="544.36 8.93 514.38 8.93 506.71 59.77 536.34 59.77 544.36 8.93"/>
      <polygon class="cls-2" points="177.86 8.36 147.68 8.36 139.57 59.77 169.68 59.77 177.86 8.36"/>
    </g>
    <path class="cls-2" d="M272.3,56.44c-7.96,0-15.05,1.16-21.24,3.33h41.26c-5.69-2.18-12.4-3.33-20.02-3.33Z"/>
    <path class="cls-2" d="M215.17,134.7c0,1.96.19,3.83.52,5.63l3.57-22.46c-2.69,4.78-4.09,10.4-4.09,16.82Z"/>
    <g>
      <path class="cls-2" d="M523.79,59.77l-8.8,55.81h-30.34c.96-3.15,1.5-6.54,1.5-10.09,0-12.29-7.12-20.87-18.72-21.83h-.04c-.71-.06-1.42-.08-2.17-.08-15.48,0-28.16,13.69-28.16,31.17,0,.29.04.56.04.84h-29.98c.15-9.9,2.05-18.87,5.39-26.66v-.02c6.08-14.31,17.01-24.61,30.76-29.13h31.26c7.77,2.74,14.27,7.46,17.68,13.14l.67-4.47,1.3-8.67h29.63Z"/>
      <path class="cls-2" d="M111.75,98.88h-30.17c-.56-9.3-5.95-14.81-15.19-15.59t-.04,0c-.73-.08-1.5-.1-2.28-.1-14.29,0-24.95,13.69-24.95,31.99v.4H8.58c.69-26.7,16.15-48.08,38.49-55.81h38.74c16.55,5.83,25.95,19.6,25.95,39.11Z"/>
      <path class="cls-2" d="M218.22,98.09l-2.78,17.49h-30.02l1.63-10.26c2.09-12.7-3.34-21.12-13.75-22.02-.63-.08-1.27-.1-1.94-.1-11.66,0-19.51,7.65-21.73,21.94l-1.65,10.45h-29.75l8.8-55.81h30.13l-1.69,10.55c1.67-1.98,3.32-3.72,5.01-5.24,2.42-2.21,4.91-3.97,7.52-5.31h31.88c13.31,6.5,21.04,21.29,18.34,38.32Z"/>
      <path class="cls-2" d="M309.17,101.1l-2.34,14.48h-90.28c1.11-1.57,2.34-3.03,3.76-4.39,6.98-6.79,17.8-10.91,32.11-12.1l28.16-2.42.21-1.82c1.13-9.44-3.95-14.81-13.92-15.42-.65-.04-1.3-.06-1.98-.06-11.47,0-17.91,4.83-19.31,14.48h-26.16c.56-3.72,1.46-7.17,2.72-10.36,4.32-11.47,12.81-19.54,24.74-23.71h41.26c16.38,6.27,24.3,21.02,21.02,41.33Z"/>
      <path class="cls-2" d="M412.93,59.77l-8.82,55.81h-29.98c.06-.4.15-.79.21-1.19l8.61-54.62h29.98Z"/>
    </g>
    <g>
      <path class="cls-2" d="M525.44,115.58l-7.1,45.05h-28.16l.19-12.68c-7.23,9.46-17.7,15.09-31.57,15.09-23.76,0-41.24-18.91-41.24-46.26,0-.4.02-.79.02-1.19h29.98c.31,11.51,6.96,19.58,17.7,20.91,1.02.13,2.09.19,3.2.19,12.35,0,22.88-8.71,26.66-21.1h30.34Z"/>
      <path class="cls-2" d="M118.77,120.01c-6.04,25.55-26.95,42.46-52.71,42.46-29.77,0-47.07-16.51-47.07-45.07,0-.61.04-1.21.04-1.82h30.55c.15,13.02,6.56,20.33,18.09,20.33,9.26,0,16.9-5.83,20.54-15.9h30.57Z"/>
      <path class="cls-2" d="M225.53,117.87l.36-2.29h-30.02l-7.03,44.46h29.97l3.14-19.72c-.33-1.8-.52-3.67-.52-5.63,0-6.43,1.4-12.04,4.09-16.82Z"/>
      <path class="cls-2" d="M227,115.58c-.52.75-1.02,1.5-1.46,2.3l-3.57,22.46c2.49,13.54,14.1,22.31,30.25,22.31,14.29,0,27.16-6.44,31.78-16.09l-.19,13.48h26.35l7.12-44.46h-90.28ZM287.42,122.01c-1.61,11.28-10.66,18.32-23.13,18.32-1.07,0-2.07-.06-3.01-.19h-.02c-6.12-.77-9.44-4.01-9.44-9.07,0-7.65,5.43-11.87,20.31-13.08l9.76-.86,6.35-.56-.81,5.43Z"/>
      <path class="cls-2" d="M414.56,115.58l-7.04,44.46h-28.16l-.4-10.86c-8.44,9.46-16.49,13.48-28.56,13.48-22.34,0-36.61-18.91-32.99-41.83l.84-5.24h30.09c-1.17,11.12,3.7,18.55,12.08,19.89.92.15,1.86.23,2.86.23,11.32,0,18.85-6.83,21.31-20.12h29.98Z"/>
    </g>
    <polygon class="cls-2" points="350.97 59.46 320.99 59.46 320.94 59.77 350.92 59.77 350.97 59.46"/>
    <path class="cls-2" d="M350.92,59.77l-8.61,53.8c-.1.69-.19,1.34-.25,2.01h-30.09l8.96-55.81h29.98Z"/>
    <polygon class="cls-2" points="417.15 59.46 387.18 59.46 387.13 59.77 417.1 59.77 417.15 59.46"/>
  </g>
  <g>
    <path class="cls-2" d="M124.28,107.24h-46.4l-.47-7.85c-.28-4.7-1.95-7.84-9.17-7.84-.24,0-.48,0-.72.03l-3.99.55-2.92-2.78,5.74-6.03-5.93-5.93,5.13-.06-.32-2.31c1.19-.16,2.28-.18,3-.18,12.13,0,20.91,5.84,24.33,15.69h14.24c-2.13-11.23-8.81-19.06-19.62-22.87l5.55-15.77c20.04,7.06,31.53,24.19,31.53,47v8.36Z"/>
    <rect class="cls-2" x="43.3" y="107.22" width="6.27" height="16.71"/>
    <polygon class="cls-2" points="129.55 123.94 118.23 123.94 118.23 114.92 114.15 114.28 122.94 58.47 127.02 59.11 127.02 51.41 140.98 51.41 129.55 123.94"/>
    <path class="cls-2" d="M385.44,123.94h-21.11l11.47-72.52h21.1l-10.13,64.27c-.04.26-.09.55-.14.83l-.07.37-1.12,7.04Z"/>
    <path class="cls-2" d="M220.73,123.94h-1.1v-4.37l-8.62-3.01,1.49-9.34h24.2l-9.1,13.12c-.37.53-.73,1.07-1.05,1.64l-5.81-2.03v3.98Z"/>
    <path class="cls-2" d="M357,144.06c-6.86,0-12.97-2.59-17.21-7.29-4.83-5.36-6.97-13.2-6.04-22.06l.79-7.48h23.08l-.97,9.23c-.38,3.66-.24,9.91,5.08,10.76l-.2,16.54c-1.5.2-3.02.3-4.52.3Z"/>
    <path class="cls-2" d="M258.02,148.69c-15.38,0-20.83-9.49-20.83-17.61,0-19.13,21.07-20.85,27.99-21.41l26.61-2.35-2.61,17.57-16.33,1.43c-12.68,1.03-12.68,3.74-12.68,4.75,0,.08,0,.15,0,.21.26.14.89.41,2.13.57l-.05,16.59c-1.37.16-2.79.25-4.24.25Z"/>
    <path class="cls-2" d="M146.65,98.77l7.54-47.36h17.98l3.81,15.79c-3.37,1.73-6.53,4.42-9.94,8.49l-19.39,23.08Z"/>
    <path class="cls-2" d="M230.8,102.21h-16.79l.51-8.84c.16-2.83-.02-5.59-.56-8.21l-.48-2.36.85-2.26c5.18-13.73,15.48-23.64,29.8-28.65l1.34-.47h5.6l2.76,16.24c-12.46,4.37-19.85,13.6-21.96,27.45l-1.08,7.1Z"/>
    <path class="cls-2" d="M225.1,123.94h-15.25l2.64-16.79,2-1.94c8.45-8.23,20.99-13.08,37.25-14.44l19.64-1.69c-1-.69-2.79-1.17-5-1.3l.02-16.69c.87-.05,1.76-.08,2.69-.08,10.68,0,16.48,4.02,19.47,7.39,2.74,3.09,5.79,8.62,4.73,17.43l-.99,8.58-34.97,3.01c-10.05.83-23.34,3.75-29.73,12.93l-2.49,3.58Z"/>
    <path class="cls-2" d="M495.03,123.94h-21.65l3.29-10.79c.76-2.49,1.14-5.06,1.14-7.66,0-4.7-1.44-12.71-11.05-13.51l-.11-16.65c.91-.09,1.82-.12,2.76-.12,17.25,0,29.29,12.45,29.29,30.28,0,4.25-.63,8.46-1.87,12.53l-1.8,5.92Z"/>
    <path class="cls-2" d="M419.54,123.94h-21.03l11.46-72.52h37.48l2.61,16.3c-18.42,6.05-30.07,24.44-30.4,47.98l-.12,8.24Z"/>
    <path class="cls-2" d="M462.18,145.04c-17.03,0-28.78-11.75-29.25-29.24l-.23-8.58h22.98l.22,8.13c.12,4.33,1.62,11.76,10.38,12.85l-.02,16.59c-1.37.17-2.71.25-4.09.25Z"/>
    <path class="cls-2" d="M501.2,97.19l-11.99-19.97c-.59-.98-1.36-1.96-2.3-2.91l-2.93-2.97,2.98-19.92h21.08l-6.84,45.77Z"/>
    <path class="cls-2" d="M196.73,123.94h-21.1l3.17-19.93c.73-4.43.24-8.11-1.33-10.13-.38-.49-1.53-1.96-4.89-2.25v-16.65c.97-.08,1.94-.13,2.95-.13,7.66,0,14.3,2.85,18.7,8.04,3.49,4.12,7.24,11.58,5.24,23.78l-2.75,17.28Z"/>
    <path class="cls-2" d="M478.7,68.13h-31.26l-2.6-16.3c6-1.97,12.37-2.97,18.94-2.97,5.95,0,12.06,1.04,17.69,3.02l-2.77,16.24Z"/>
    <path class="cls-2" d="M89.97,68.13h-38.73l-2.74-16.25c6.88-2.39,14.14-3.59,21.56-3.59,8.26,0,15.9,1.21,22.69,3.61l-2.78,16.24Z"/>
    <path class="cls-2" d="M204.06,68.13h-31.9l-3.81-15.79c5.85-3,12.41-4.46,20.06-4.46,6.88,0,13.38,1.48,19.33,4.39l-3.67,15.86Z"/>
    <path class="cls-2" d="M156.48,168.4h-46.7l9.66-61.18h46.67l-9.63,61.18ZM129.34,151.68h12.85l4.37-27.75h-12.83l-4.38,27.75Z"/>
    <g>
      <path class="cls-2" d="M543.48,68.13h-46.48L507.19.57h46.95l-10.66,67.56ZM516.42,51.42h12.77l5.39-34.13h-13.01l-5.15,34.13Z"/>
      <path class="cls-2" d="M176.81,68.13h-47.02L140.54,0h47.11l-10.84,68.13ZM149.35,51.42h13.2l5.52-34.7h-13.24l-5.48,34.7Z"/>
    </g>
    <path class="cls-2" d="M292.32,68.13h-41.26l-2.77-16.24c7.19-2.52,15.26-3.81,24.01-3.81s16.26,1.31,23,3.88l-2.98,16.16Z"/>
    <path class="cls-2" d="M207.47,141.85c-.44-2.36-.66-4.77-.66-7.15,0-7.8,1.74-14.84,5.17-20.93l15.53,5.42-3.57,22.46-16.47.21Z"/>
    <g>
      <path class="cls-2" d="M522.14,123.94h-48.76l3.29-10.79c.76-2.49,1.14-5.06,1.14-7.66,0-4.66-1.41-12.56-10.79-13.48l-.34-.03c-.47-.04-.94-.05-1.44-.05-10.88,0-19.73,10.15-19.81,22.66.03.37.04.68.04.99v8.36h-46.82l.12-8.48c.15-10.14,1.96-19.62,5.39-28.2v-.04l.67-1.59c7.01-16.51,19.74-28.52,35.84-33.8l1.27-.42h34.02l1.35.47c3.22,1.13,6.23,2.53,8.97,4.16l.69-4.63h46.6l-11.43,72.52ZM494.49,107.22h13.37l6.16-39.09h-12.65l-4.35,29.08-11.98-20c-2.15-3.59-6.59-6.93-12.01-9.08h-28.35c-10.64,3.87-19.15,12.07-24.13,23.26l-.35.82c-1.99,4.63-3.35,9.65-4.08,15.01h13.26c3.25-18.21,18.09-32.01,35.86-32.01.87,0,1.69.02,2.51.08l.4.03c15.78,1.31,26.39,13.43,26.39,30.16,0,.58-.01,1.16-.03,1.73Z"/>
      <path class="cls-2" d="M47.48,123.94H0l.22-8.57c.76-29.56,18.08-54.48,44.11-63.49l1.33-.46h41.57l1.35.47c20.04,7.06,31.53,24.19,31.53,47v8.36h-46.39l-.48-7.85c-.29-4.7-2.07-6.93-6.25-7.61l-1.98-.21c-.31-.02-.62-.02-.94-.02-9.46,0-16.59,10.16-16.59,23.63v8.75ZM17.77,107.22h13.59c2.82-18.51,15.41-31.79,31.61-32.37l3.23-3.24,3.97,3.76c9.03,1.65,15.44,7.04,18.24,15.15h14.23c-2.05-10.78-8.28-18.43-18.35-22.4h-35.77c-16.19,6.14-27.64,20.91-30.76,39.09Z"/>
      <path class="cls-2" d="M222.58,123.94h-46.95l3.17-19.93c.73-4.43.24-8.11-1.33-10.13-.38-.49-1.53-1.96-4.89-2.25l-.39-.04c-.27-.03-.55-.03-.84-.03-2.76,0-11.17,0-13.47,14.86l-2.77,17.52h-46.67l11.43-72.52h81.93l1.74.85c17.14,8.37,26.14,26.87,22.93,47.14h0s-3.9,24.54-3.9,24.54ZM195.21,107.22h13.1l1.66-10.44c1.93-12.18-2.82-23.22-12.17-28.65h-27.62c-1.37.85-2.72,1.88-4.07,3.12-1.42,1.28-2.8,2.73-4.26,4.46l-.67.79c3.11-1.09,6.52-1.66,10.18-1.66.75,0,1.75.02,2.84.15,6.88.64,12.57,3.62,16.46,8.63,4.55,5.85,6.15,13.82,4.63,23.06l-.09.55ZM128,107.22h12.83l.54-3.39c.28-1.78.63-3.5,1.07-5.14l4.9-30.56h-13.18l-6.16,39.09Z"/>
      <path class="cls-2" d="M313.95,123.94h-113.53l9.31-13.18c1.48-2.09,3.05-3.93,4.81-5.61,1.06-1.03,2.19-2.01,3.39-2.94h-8.21l1.46-9.61c.66-4.33,1.73-8.43,3.2-12.16,5.14-13.63,15.44-23.54,29.76-28.55l1.34-.47h44.23l1.44.55c20.31,7.77,30.13,26.64,26.28,50.47h0s-3.47,21.5-3.47,21.5ZM255.45,107.22h44.27l1.2-7.45c1.76-10.92.63-25.12-14.4-31.64h-38.14c-8.62,3.35-14.68,9.18-18.04,17.36h8.96c4.01-9.29,13-14.48,25.6-14.48.88,0,1.7.03,2.52.08,9.44.57,14.62,4.52,17.3,7.73,2.56,3.06,5.39,8.5,4.37,17.02l-.99,8.57-32.66,2.81ZM264.9,87.73c-5.14,0-7.8,1.08-9.25,2.7l15.73-1.35c-1-.69-2.79-1.17-5-1.3-.5-.03-.98-.05-1.48-.05Z"/>
      <path class="cls-2" d="M411.25,123.94h-46.92l11.47-72.52h46.91l-11.46,72.52ZM383.93,107.22h13.04l6.18-39.09h-13.06l-6.16,39.09Z"/>
    </g>
    <g>
      <path class="cls-2" d="M458.79,171.39c-28.74,0-49.6-22.97-49.6-54.62l.02-1.19v-8.36h46.47l.22,8.13c.12,4.33,1.62,11.76,10.38,12.85.66.08,1.4.12,2.16.12,8.39,0,15.89-6.1,18.67-15.18l1.81-5.92h46.3l-9.74,61.76h-43.79l.04-2.95c-6.76,3.53-14.48,5.36-22.94,5.36ZM426.4,123.94c2.58,18.41,15.18,30.73,32.4,30.73,10.56,0,18.95-3.97,24.93-11.8l1.84-2.4c-5.15,2.94-10.99,4.57-17.11,4.57-1.44,0-2.86-.08-4.21-.25-12.1-1.51-20.87-9.4-23.9-20.85h-13.94ZM498.66,152.27h12.54l4.47-28.33h-14.88c-.54,1.12-1.13,2.2-1.76,3.25l-.37,25.09Z"/>
      <path class="cls-2" d="M66.05,170.82c-34.19,0-55.43-20.47-55.43-53.43,0-.4.01-.8.03-1.2,0-.21.02-.41.02-.62v-8.36h47.17l.09,8.26c.14,12.07,6.62,12.07,9.74,12.07,7.77,0,11.28-6.5,12.68-10.38l1.99-5.52h47l-2.43,10.28c-6.91,29.24-31.36,48.89-60.85,48.89ZM27.71,123.94c1.76,14.99,10.44,30.17,38.35,30.17,18.26,0,33.45-9.81,41-25.74h-13.47c-5.51,10.06-14.87,15.9-25.92,15.9-13.42,0-22.7-7.6-25.54-20.33h-14.42Z"/>
      <path class="cls-2" d="M225.95,168.4h-46.89l9.67-61.18h46.95l-2.14,13.45-.74,1.31c-2,3.55-3.01,7.83-3.01,12.72,0,1.37.13,2.75.38,4.11l.26,1.41-4.48,28.18ZM198.63,151.69h13.06l1.8-11.34c-.27-1.88-.41-3.77-.41-5.65,0-3.77.41-7.37,1.21-10.76h-11.28l-4.39,27.75Z"/>
      <path class="cls-2" d="M252.22,171.01c-20.12,0-35.22-11.45-38.47-29.16l-.26-1.41,4.03-25.32.71-1.28c.64-1.16,1.33-2.18,1.91-3.02l2.49-3.59h104.46l-9.8,61.18h-41.95l.04-2.69c-6.72,3.38-14.74,5.31-23.15,5.31ZM230.46,140.11c2.25,8.91,10.28,14.18,21.76,14.18,7.98,0,15.57-2.55,20.31-6.49-2.6.59-5.36.89-8.23.89-1.21,0-2.39-.06-3.51-.19l-.56-.07c-10.33-1.3-16.75-7.96-16.75-17.36,0-2.72.43-5.08,1.17-7.15h-11.6l-2.57,16.17ZM292.28,151.68h10.75l4.45-27.75h-11.89c-1.48,8.87-6.52,15.97-13.83,20.26l10.6,2.48-.07,5ZM262.04,131.82l.35.04c.57.08,1.21.11,1.9.11,3.18,0,9.81-.69,13.1-6.05l-4.53.4c-12.68,1.03-12.68,3.74-12.68,4.75,0,.08,0,.15,0,.21.24.13.8.37,1.86.53Z"/>
      <path class="cls-2" d="M350.39,171.01c-12.63,0-23.87-5.01-31.65-14.11-8.31-9.72-11.81-23.35-9.59-37.38l1.96-12.3h46.5l-.97,9.23c-.38,3.66-.24,9.91,5.08,10.76.53.09,1.03.13,1.54.13,4.95,0,10.91-1.51,13.1-13.29l1.27-6.83h46.72l-9.69,61.18h-43.36l-.08-2.2c-6.17,3.3-12.91,4.81-20.82,4.81ZM325.42,123.94c-.92,8.52,1.24,16.5,6.03,22.1,4.62,5.4,11.17,8.25,18.95,8.25,9.45,0,15.29-2.8,22.32-10.68l1.18-1.32c-4.39,1.58-9.49,2.27-14.8,1.43-10.24-1.64-17.17-9.2-18.88-19.79h-14.8ZM387.41,151.68h12.97l4.39-27.75h-13.78c-1.12,3.18-2.55,6.01-4.29,8.48l.71,19.27Z"/>
    </g>
    <polygon class="cls-2" points="358.04 68.13 311.13 68.13 313.87 51.1 360.77 51.1 358.04 68.13"/>
    <path class="cls-2" d="M349.69,123.94h-47.52l11.65-72.52h46.9l-10.16,63.48c-.07.45-.13.94-.18,1.45l-.7,7.6ZM321.78,107.22h13.08l6.26-39.09h-13.06l-6.28,39.09Z"/>
    <polygon class="cls-2" points="424.27 68.13 377.32 68.13 380.06 51.1 426.9 51.1 424.27 68.13"/>
  </g>
  <g>
    <path class="cls-1" d="M120.11,103.06h-38.28l-.24-3.93c-.47-7.81-4.96-11.76-13.34-11.76-.43,0-.87,0-1.29.07l-1.99.27-1.46-1.39,2.86-3.01-2.98-2.97,2.58-.03-.16-1.15c.92-.13,1.78-.14,2.43-.14,11.4,0,19.07,5.79,21.16,15.69h22.18c-1.23-15.24-9.28-26.16-23-30.99l2.78-7.88c18.53,6.53,28.74,21.82,28.74,43.05v4.18Z"/>
    <rect class="cls-1" x="43.3" y="111.4" width="6.27" height="8.36"/>
    <polygon class="cls-1" points="125.98 119.76 118.23 119.76 118.23 111.4 118.83 111.4 127.02 59.44 127.02 55.59 136.09 55.59 125.98 119.76"/>
    <path class="cls-1" d="M381.87,119.76h-12.64l10.14-64.16h12.64l-9.37,59.44c-.04.23-.08.48-.13.73l-.64,3.99Z"/>
    <path class="cls-1" d="M222.9,119.93l-2.17-.76v.59h-1.1v-.97l-4.49-1.57.93-5.82h12.65l-4.55,6.56c-.44.64-.88,1.29-1.26,1.97Z"/>
    <path class="cls-1" d="M357,139.88c-5.74,0-10.62-2.04-14.1-5.91-4.08-4.53-5.81-11.04-4.99-18.83l.39-3.74h14.67l-.49,4.62c-.91,8.6,2.3,14.32,8.58,15.33l-.1,8.27c-1.32.18-2.65.27-3.96.27Z"/>
    <path class="cls-1" d="M258.02,144.52c-12.28,0-16.65-6.94-16.65-13.43,0-13.69,13.78-16.4,24.15-17.24l21.36-1.88-1.34,9.07-13.04,1.14c-16.49,1.34-16.49,6.27-16.49,8.92,0,1.25,0,4.19,5.79,4.92l-.03,8.3c-1.2.14-2.46.22-3.74.22Z"/>
    <path class="cls-1" d="M153.15,84.55l4.61-28.95h14.41l1.91,7.9c-3.88,1.99-7.45,5.01-11.23,9.52l-9.69,11.54Z"/>
    <path class="cls-1" d="M227.2,98.03h-8.77l.26-4.42c.18-3.19-.03-6.32-.63-9.29l-.24-1.18.43-1.13c4.73-12.54,14.16-21.59,27.27-26.18l.67-.23h4.89l1.38,8.12c-13.84,4.85-22.38,15.49-24.71,30.76l-.54,3.55Z"/>
    <path class="cls-1" d="M222.91,119.76h-8.18l1.66-10.59,1-.97c7.74-7.53,19.41-12,34.68-13.27l24.69-2.13c.08-2.54-.48-4.53-1.67-5.95-1.99-2.39-5.71-3.09-8.47-3.26v-8.34c.8-.05,1.61-.07,2.45-.07,7.32,0,12.82,2.01,16.34,5.98,2.17,2.45,4.58,6.9,3.71,14.17l-.6,5.2-31.57,2.72c-15.67,1.3-27.01,6.38-32.8,14.71l-1.25,1.79Z"/>
    <path class="cls-1" d="M491.93,119.76h-12.92l1.64-5.4c.88-2.88,1.32-5.87,1.32-8.87,0-10.29-5.57-16.9-14.89-17.67l-.06-8.32c.78-.08,1.56-.1,2.36-.1,15.02,0,25.12,10.49,25.12,26.1,0,3.83-.57,7.64-1.69,11.31l-.9,2.96Z"/>
    <path class="cls-1" d="M415.42,119.76h-12.02l10.14-64.16h33.91l1.3,8.15c-20.16,6.63-32.91,26.51-33.27,51.9l-.06,4.12ZM420.67,63.95l-1.99,12.57c3.34-4.85,7.34-9.09,11.92-12.57h-9.93Z"/>
    <path class="cls-1" d="M462.18,140.86c-14.6,0-24.67-10.12-25.07-25.17l-.11-4.29h14.63l.11,4.06c.26,9.51,5.51,15.82,14.04,16.88v8.3c-1.21.15-2.38.22-3.59.22Z"/>
    <path class="cls-1" d="M498.79,85.05l-5.99-9.98c-.76-1.26-1.73-2.5-2.9-3.69l-1.47-1.49,2.14-14.3h12.63l-4.4,29.46Z"/>
    <path class="cls-1" d="M193.17,119.76h-12.64l2.4-15.09c.93-5.64.16-10.37-2.16-13.35-1.76-2.26-4.39-3.56-7.82-3.85v-8.33c.85-.07,1.7-.12,2.59-.12,6.51,0,11.87,2.27,15.52,6.56,4.19,4.94,5.68,12,4.3,20.41l-2.19,13.77Z"/>
    <path class="cls-1" d="M478.7,63.95h-31.26l-1.3-8.15c5.58-1.83,11.51-2.76,17.64-2.76,5.48,0,11.12.96,16.3,2.79l-1.39,8.12Z"/>
    <path class="cls-1" d="M89.97,63.95h-38.73l-1.37-8.13c6.44-2.23,13.24-3.36,20.19-3.36,7.79,0,14.96,1.13,21.3,3.37l-1.39,8.12Z"/>
    <path class="cls-1" d="M204.06,63.95h-31.9l-1.91-7.9c5.32-2.73,11.08-4,18.15-4,6.23,0,12.12,1.33,17.49,3.96l-1.84,7.93Z"/>
    <path class="cls-1" d="M152.91,164.22h-38.24l8.34-52.82h38.21l-8.31,52.82ZM124.45,155.86h21.31l5.68-36.1h-21.29l-5.7,36.1Z"/>
    <g>
      <path class="cls-1" d="M539.91,63.95h-38.05l8.93-59.2h38.46l-9.35,59.2ZM511.57,55.59h21.2l6.7-42.49h-21.49l-6.41,42.49Z"/>
      <path class="cls-1" d="M173.24,63.95h-38.57l9.43-59.77h38.64l-9.51,59.77ZM144.46,55.59h21.65l6.85-43.06h-21.71l-6.8,43.06Z"/>
    </g>
    <path class="cls-1" d="M292.32,63.95h-41.26l-1.39-8.12c6.74-2.37,14.35-3.57,22.62-3.57s15.25,1.21,21.51,3.61l-1.49,8.08Z"/>
    <path class="cls-1" d="M211.58,141.09c-.39-2.11-.59-4.26-.59-6.39,0-7.07,1.56-13.42,4.63-18.88l7.77,2.71-3.57,22.46-8.24.1Z"/>
    <g>
      <path class="cls-1" d="M518.57,119.76h-39.55l1.64-5.4c.88-2.88,1.32-5.87,1.32-8.87,0-10.23-5.5-16.82-14.72-17.66l-.23-.02c-.59-.05-1.18-.07-1.81-.07-13.23,0-23.98,12.11-23.98,26.99.03.37.04.6.04.84v4.18h-38.4l.06-4.24c.15-9.92,1.96-19.14,5.39-27.44h0s.33-.81.33-.81c6.54-15.39,18.36-26.56,33.3-31.46l.64-.21h32.64l.67.24c5.15,1.81,9.77,4.43,13.48,7.58l1.17-7.81h38.12l-10.11,64.16ZM489.89,111.4h21.54l7.48-47.45h-21.14l-3.16,21.11-5.99-10c-2.76-4.6-8.14-8.63-14.82-11.11h-29.84c-12.12,4.18-21.79,13.36-27.33,25.97l-.27.65c-2.71,6.32-4.35,13.32-4.87,20.83h21.55c1.54-17.93,15.4-32.01,32.2-32.01.81,0,1.58.02,2.35.08h.21c13.7,1.15,22.55,11.35,22.55,26.01,0,1.98-.15,3.96-.45,5.91Z"/>
      <path class="cls-1" d="M43.3,119.76H4.29l.11-4.29c.72-27.8,16.93-51.21,41.3-59.65l.66-.23h40.15l.67.24c18.53,6.53,28.74,21.82,28.74,43.05v4.18h-38.28l-.24-3.93c-.41-6.75-3.66-10.53-9.92-11.5l-1.61-.18h-.06s-.47-.04-.47-.04c-.42-.03-.85-.03-1.28-.03-11.84,0-20.77,11.96-20.77,27.81v4.58ZM13.01,111.4h22.08c1.43-18.71,13.41-32.39,28.98-32.39.23,0,.44,0,.64,0l1.56-1.56,1.96,1.84c9.18,1.25,15.19,6.74,17,15.41h22.17c-1.21-14.99-9.03-25.81-22.34-30.75h-37.29c-19.44,7.03-32.73,25.32-34.77,47.45Z"/>
      <path class="cls-1" d="M219.01,119.76h-38.49l2.4-15.09c.93-5.64.16-10.37-2.16-13.35-1.76-2.26-4.39-3.56-7.82-3.85-.64-.08-1.11-.09-1.58-.09-12.19,0-16.3,10.01-17.6,18.4l-2.21,13.99h-38.21l10.11-64.16h38.6l-.52,3.24c1.48-1.06,2.99-1.98,4.56-2.78l.9-.46h33.86l.87.42c15.45,7.54,23.55,24.32,20.64,42.73h0s-3.34,21.01-3.34,21.01ZM190.31,111.4h21.56l2.22-13.96c2.27-14.36-3.68-27.39-15.22-33.49h-29.84c-1.97,1.1-3.86,2.49-5.75,4.21-1.55,1.39-3.06,2.97-4.64,4.85l-9.71,11.53,3.3-20.59h-21.65l-7.48,47.45h21.29l1.09-6.92c2.51-16.18,11.93-25.47,25.86-25.47.67,0,1.56.02,2.5.14,5.57.48,10.31,2.91,13.51,7.03,3.82,4.91,5.13,11.76,3.81,19.81l-.86,5.4Z"/>
      <path class="cls-1" d="M310.39,119.76h-101.91l4.65-6.59c1.32-1.87,2.72-3.5,4.29-5,4.59-4.47,10.59-7.86,17.92-10.14h-20.77l.73-4.81c.61-4.03,1.61-7.82,2.96-11.26,4.71-12.49,14.14-21.54,27.25-26.13l.67-.23h42.75l.72.28c18.59,7.11,27.21,23.84,23.65,45.9l-2.91,17.99ZM226.57,111.4h76.7l1.77-10.97c2.87-17.76-3.41-30.69-17.69-36.48h-39.74c-10.5,3.86-17.75,10.92-21.55,21.01-.59,1.5-1.09,3.07-1.52,4.71h17.68c2.11-7.25,7.91-14.48,22.67-14.48.78,0,1.52.02,2.25.07,6.39.39,11.23,2.49,14.36,6.24,2.03,2.43,4.27,6.81,3.43,13.85l-.6,5.19-31.57,2.72c-11.15.93-19.94,3.66-26.21,8.14ZM264.9,83.55c-12.04,0-14.43,5.83-15.17,10.9l-.1.72c.81-.09,1.63-.17,2.45-.23l24.69-2.13c.08-2.54-.48-4.53-1.67-5.95-1.99-2.39-5.71-3.09-8.47-3.26-.58-.04-1.14-.05-1.73-.05Z"/>
      <path class="cls-1" d="M407.68,119.76h-38.45l10.14-64.16h38.45l-10.14,64.16ZM379.04,111.4h21.5l7.5-47.45h-21.52l-7.48,47.45Z"/>
    </g>
    <g>
      <path class="cls-1" d="M458.79,167.21c-26.32,0-45.42-21.21-45.42-50.44l.02-5.37h38.23l.11,4.06c.26,9.51,5.51,15.82,14.04,16.88.84.1,1.74.16,2.68.16,10.24,0,19.35-7.29,22.66-18.14l.9-2.96h38.32l-8.42,53.4h-35.98l.1-6.52c-7.48,5.87-16.72,8.93-27.24,8.93ZM421.8,119.76c1.18,23.17,16.05,39.09,36.99,39.09,11.93,0,21.44-4.52,28.25-13.44l7.69-10.06-.31,21.1h20.35l5.79-36.69h-22.49c-5.09,12.74-16.65,21.1-29.62,21.1-1.28,0-2.52-.07-3.71-.22-11.31-1.41-19.23-9.43-21-20.88h-21.93Z"/>
      <path class="cls-1" d="M66.05,166.64c-32.09,0-51.25-18.41-51.25-49.25,0-.35.01-.7.02-1.05,0-.26.02-.51.02-.77v-4.18h38.86l.05,4.13c.12,10.75,4.8,16.2,13.92,16.2,7.54,0,13.59-4.79,16.61-13.14l1-2.76h38.78l-1.22,5.14c-6.45,27.32-29.27,45.67-56.78,45.67ZM23.2,119.76c.89,24.87,16.03,38.53,42.85,38.53,22.15,0,40.17-13.21,47.18-34.1h-22.23c-4.59,10.02-13.14,15.9-23.34,15.9-12.49,0-20.49-7.51-22.01-20.33h-22.45Z"/>
      <path class="cls-1" d="M222.39,164.22h-38.43l8.35-52.82h38.48l-1.25,7.87-.37.65c-2.36,4.18-3.55,9.15-3.55,14.77,0,1.62.15,3.26.45,4.87l.13.71-3.81,23.95ZM193.74,155.87h21.52l2.47-15.51c-.31-1.88-.46-3.78-.46-5.66,0-5.43.92-10.44,2.74-14.94h-20.55l-5.71,36.11Z"/>
      <path class="cls-1" d="M252.22,166.83c-18,0-31.49-10.1-34.36-25.74l-.13-.7,3.8-23.89.35-.64c.55-.99,1.16-1.9,1.69-2.66l1.25-1.79h97.37l-8.46,52.82h-34.15l.08-6.08c-6.98,5.43-16.84,8.69-27.44,8.69ZM226.21,140.26c2.4,11.26,12.3,18.22,26.01,18.22,12.63,0,24.15-5.64,28.01-13.71l7.95,1.86-.13,9.24h18.55l5.79-36.1h-20.39l-.43,2.86c-1.9,13.3-12.61,21.9-27.26,21.9-1.15,0-2.25-.06-3.29-.19l-.26-.03c-8.2-1.04-13.1-5.98-13.1-13.21,0-5.18,1.98-8.79,4.99-11.32h-23.17l-3.26,20.5ZM261.54,135.97l.3.04c.75.1,1.58.15,2.46.15,10.42,0,17.7-5.65,18.99-14.73l.03-.21-10.82.95c-16.49,1.34-16.49,6.27-16.49,8.92,0,1.24,0,4.11,5.54,4.89Z"/>
      <path class="cls-1" d="M350.39,166.83c-11.39,0-21.51-4.49-28.47-12.65-7.52-8.79-10.67-21.19-8.64-34.01l1.4-8.77h38.3l-.49,4.62c-.91,8.6,2.3,14.32,8.58,15.33.75.12,1.47.18,2.2.18,9.36,0,15.15-5.62,17.2-16.7l.63-3.42h38.35l-8.37,52.82h-35.76l-.21-5.59c-7.21,5.74-14.86,8.2-24.73,8.2ZM321.81,119.76l-.27,1.72c-1.64,10.4.82,20.34,6.74,27.27,5.35,6.27,13.21,9.72,22.12,9.72,10.69,0,17.59-3.27,25.44-12.08l6.91-7.75.63,17.22h20.57l5.72-36.1h-21.75c-3.48,13.01-12.13,20.12-24.65,20.12-1.17,0-2.32-.09-3.52-.28-9.53-1.52-15.4-9.12-15.75-19.84h-22.19Z"/>
    </g>
    <polygon class="cls-1" points="354.48 63.95 316.04 63.95 317.43 55.28 355.87 55.28 354.48 63.95"/>
    <path class="cls-1" d="M345.87,119.76h-38.8l10.31-64.16h38.44l-9.38,58.64c-.09.57-.16,1.14-.21,1.73l-.35,3.8ZM316.88,111.4h21.55l7.59-47.45h-21.52l-7.62,47.45Z"/>
    <polygon class="cls-1" points="420.69 63.95 382.22 63.95 383.62 55.28 422.02 55.28 420.69 63.95"/>
  </g>
</svg>